<?xml version="1.0" encoding="UTF-8" standalone="no"?>
<!-- Created with Inkscape (http://www.inkscape.org/) -->

<svg
   xmlns:dc="http://purl.org/dc/elements/1.1/"
   xmlns:cc="http://creativecommons.org/ns#"
   xmlns:rdf="http://www.w3.org/1999/02/22-rdf-syntax-ns#"
   xmlns:svg="http://www.w3.org/2000/svg"
   xmlns="http://www.w3.org/2000/svg"
   xmlns:sodipodi="http://sodipodi.sourceforge.net/DTD/sodipodi-0.dtd"
   xmlns:inkscape="http://www.inkscape.org/namespaces/inkscape"
   width="210mm"
   height="297mm"
   viewBox="0 0 744.09448819 1052.3622047"
   id="svg2"
   version="1.1"
   inkscape:version="0.91 r13725"
   inkscape:export-filename="E:\RandomProjects\weberino\www\sandbox2\images\external-profiles.png"
   inkscape:export-xdpi="15"
   inkscape:export-ydpi="15"
   sodipodi:docname="externalProfiles.svg">
  <defs
     id="defs4" />
  <sodipodi:namedview
     id="base"
     pagecolor="#ffffff"
     bordercolor="#666666"
     borderopacity="1.0"
     inkscape:pageopacity="0.0"
     inkscape:pageshadow="2"
     inkscape:zoom="0.35"
     inkscape:cx="-112.14286"
     inkscape:cy="520"
     inkscape:document-units="px"
     inkscape:current-layer="layer1"
     showgrid="false"
     inkscape:window-width="1366"
     inkscape:window-height="706"
     inkscape:window-x="-8"
     inkscape:window-y="-8"
     inkscape:window-maximized="1" />
  <metadata
     id="metadata7">
    <rdf:RDF>
      <cc:Work
         rdf:about="">
        <dc:format>image/svg+xml</dc:format>
        <dc:type
           rdf:resource="http://purl.org/dc/dcmitype/StillImage" />
        <dc:title></dc:title>
      </cc:Work>
    </rdf:RDF>
  </metadata>
  <g
     inkscape:label="Layer 1"
     inkscape:groupmode="layer"
     id="layer1">
    <g
       id="g4315"
       transform="translate(-1342.8572,500)">
      <rect
         y="-190.49493"
         x="131.42857"
         height="480"
         width="480"
         id="rect4245"
         style="opacity:1;fill:#ffffff;fill-opacity:0;stroke:none;stroke-width:4.19999981;stroke-miterlimit:4;stroke-dasharray:none;stroke-opacity:1" />
      <path
         inkscape:connector-curvature="0"
         id="path4221"
         d="m 191.88332,253.6181 c -6.59129,-1.20015 -11.54938,-3.70506 -16.18889,-8.17885 -4.11465,-3.96765 -6.51755,-8.12683 -8.20979,-14.21055 -0.52816,-1.89861 -0.55049,-9.27203 -0.55049,-181.753698 0,-172.481662 0.0222,-179.855082 0.55049,-181.753692 1.71381,-6.16117 4.14356,-10.32813 8.38564,-14.38097 3.87623,-3.70326 8.4993,-6.2254 13.96596,-7.61914 l 2.6713,-0.68105 178.86147,0 178.86144,0 2.67129,0.68105 c 5.78716,1.47544 10.23017,3.98453 14.40639,8.1357 3.19942,3.18018 5.41606,6.57532 6.81233,10.43412 1.99533,5.51439 1.84874,-10.03437 1.75756,186.401756 -0.078,167.997564 -0.11392,178.669644 -0.60816,180.461484 -1.59983,5.80007 -4.31103,10.51846 -8.18985,14.25311 -3.98899,3.8407 -8.1158,6.1722 -13.6167,7.69293 l -2.92842,0.80955 -178.25261,0.0496 c -143.9522,0.04 -178.66557,-0.0256 -180.39896,-0.34129 z m 98.80774,-158.628576 0,-92.3990655 -30.90115,0 -30.90116,0 0,92.3990655 0,92.399076 30.90116,0 30.90115,0 0,-92.399076 z m 96.28988,36.609516 c 0.10961,-61.525546 -0.0291,-57.216142 2.0138,-62.504788 1.78961,-4.632446 5.83335,-10.62892 9.22304,-13.676638 7.17812,-6.453994 16.36312,-9.431548 25.99638,-8.427401 16.11793,1.680103 25.05626,12.416766 27.21369,32.688956 0.20386,1.915551 0.31462,21.395691 0.31462,55.332881 l 0,52.37655 31.0534,0 31.05339,0 -0.008,-51.984 c -0.008,-53.931933 -0.16153,-62.99514 -1.20822,-71.14692 -2.81383,-21.91489 -10.94757,-38.954878 -23.9221,-50.116353 -9.29797,-7.9986764 -20.2415,-12.8447715 -33.77243,-14.9553825 -5.80372,-0.905292 -18.27462,-0.98745 -23.59449,-0.155441 -11.78998,1.843914 -21.42701,5.9383041 -29.53119,12.5466245 -4.40049,3.588271 -10.17433,10.049324 -13.57473,15.190491 l -1.19093,1.80045 -0.0793,-12.988804 -0.0794,-12.9888065 -30.82187,1.13e-4 -30.82176,1.16e-4 -0.0597,92.3989565 -0.0604,92.398956 30.87806,0 30.87808,0 0.0994,-55.78956 z M 269.37986,-23.540118 c 12.16519,-2.841709 21.00028,-10.795588 24.18,-21.768256 3.26761,-11.275631 0.0497,-23.897132 -8.09154,-31.735512 -4.97216,-4.787347 -10.70425,-7.565087 -18.19626,-8.817847 -3.79822,-0.63511 -12.56821,-0.47044 -15.95308,0.29954 -8.72983,1.985792 -16.22927,6.749049 -20.57851,13.070533 -4.03158,5.85962 -6.02725,13.947614 -5.23773,21.227035 0.8579,7.90957 3.84747,14.170196 9.22273,19.31385 4.97461,4.760205 10.61751,7.564835 17.73863,8.816482 3.62803,0.637685 13.45816,0.401849 16.91576,-0.405825 z"
         style="fill:#383548;fill-opacity:1" />
    </g>
    <g
       id="g4307">
      <rect
         y="-170.49493"
         x="-1211.4286"
         height="480"
         width="480"
         id="rect4245-6"
         style="opacity:1;fill:#ffffff;fill-opacity:0;stroke:none;stroke-width:4.19999981;stroke-miterlimit:4;stroke-dasharray:none;stroke-opacity:1" />
      <path
         inkscape:connector-curvature="0"
         id="path4223"
         d="m -1038.4616,279.77649 c -3.9028,-0.71042 -16.091,-5.44437 -25.2897,-9.82261 -61.2738,-29.16428 -105.4513,-85.32096 -119.2432,-151.57706 -6.3397,-30.455313 -5.5164,-66.169958 2.2167,-96.158144 10.1904,-39.517796 28.1077,-71.062993 56.6762,-99.784094 19.9386,-20.04507 42.183,-35.157602 68.2985,-46.401002 19.143,-8.24156 35.1028,-12.36232 62.50195,-16.13774 10.74828,-1.48105 35.6114,-1.10069 49.13436,0.75167 35.26786,4.83094 63.16968,15.26528 92.12695,34.45234 29.52307,19.562012 53.02746,45.173748 70.40291,76.715123 23.40106,42.479558 31.39777,93.61032 22.40441,143.253167 -2.07169,11.4356 -6.67445,27.33122 -11.24836,38.84614 -11.29281,28.42995 -26.39842,51.27155 -48.64958,73.56432 -22.32096,22.36264 -47.05554,38.40631 -76.17888,49.41205 -12.05965,4.55735 -17.77101,3.99375 -21.33294,-2.10512 -1.37075,-2.34704 -1.43193,-3.95626 -1.49617,-39.35418 -0.065,-35.78492 -0.116,-37.09131 -1.68005,-42.9675 -1.89685,-7.12657 -5.70377,-14.70447 -9.62516,-19.15939 -1.54045,-1.75005 -2.80082,-3.37587 -2.80082,-3.61295 0,-0.23707 0.94963,-0.43104 2.11027,-0.43104 5.09908,0 23.80871,-3.79751 32.26677,-6.54922 10.72918,-3.49057 22.47189,-9.26296 29.31843,-14.41212 11.61581,-8.73602 21.14415,-21.75302 26.70494,-36.48252 7.79737,-20.653744 9.96589,-51.309096 5.00238,-70.716217 -2.80559,-10.969761 -9.16045,-23.250073 -16.73894,-32.346809 l -2.79021,-3.3491943 1.17025,-2.792603 c 3.04307,-7.261792 4.05193,-24.2436337 2.09324,-35.2349417 -0.55941,-3.1391 -1.89513,-8.569799 -2.96829,-12.068217 -1.79279,-5.844374 -2.12487,-6.398899 -4.09065,-6.830653 -2.58233,-0.567169 -8.62432,0.08493 -14.99561,1.618458 -9.2952,2.23729 -24.02569,9.145054 -36.39623,17.067755 l -5.68724,3.642396 -7.31891,-1.678748 c -18.87307,-4.328934 -30.49697,-5.400735 -52.7084,-4.860062 -17.5998,0.428423 -26.97212,1.496467 -39.38862,4.488664 -4.1055,0.989393 -7.9442,1.798896 -8.5303,1.798896 -0.5861,0 -2.9175,-1.239053 -5.1808,-2.753447 -16.0419,-10.733815 -33.2348,-17.866471 -46.4821,-19.283665 -6.9145,-0.739703 -7.3726,-0.460237 -9.6192,5.868306 -3.1451,8.859165 -4.1978,15.546115 -4.1946,26.645987 0,9.8872797 0.4851,13.5105707 2.8019,21.0547627 l 1.1403,3.713222 -3.4495,4.2349853 c -9.6078,11.795095 -15.2618,24.790442 -17.7186,40.724478 -1.2315,7.98737 -0.4379,30.767862 1.4432,41.424876 5.1562,29.212051 19.4408,50.130941 43.0026,62.974531 11.2112,6.11115 27.3917,11.0969 43.4122,13.37665 10.0861,1.43526 9.4835,0.91852 6.0849,5.21797 -4.185,5.29439 -7.0625,11.36066 -8.9719,18.91406 -1.6128,6.38039 -1.7128,6.55243 -4.493,7.73317 -5.8564,2.48721 -14.8213,4.26487 -21.5083,4.26487 -16.2368,0 -27.6661,-6.87426 -38.2814,-23.02464 -7.7924,-11.85556 -16.5589,-18.76287 -27.3082,-21.51673 -4.7208,-1.20941 -10.7793,-1.0154 -13.4835,0.43179 -3.6716,1.96499 -0.6703,6.74046 7.5377,11.99368 8.1923,5.24313 17.0163,16.90274 22.1134,29.21935 9.2057,22.24523 31.983,32.67255 62.5348,28.62814 4.8354,-0.64012 9.3195,-1.36644 9.9648,-1.61406 1.0699,-0.41056 1.1546,1.55922 0.963,22.38815 l -0.2102,22.8383 -2.622,2.6211 c -2.8697,2.86865 -6.4722,3.92309 -10.7455,3.14532 z m -12.5328,-66.31586 c -2.4594,-2.71749 -0.6975,-5.47075 3.5008,-5.47075 4.2534,0 6.1268,3.10616 3.3753,5.59626 -1.7539,1.58726 -5.3861,1.52093 -6.8761,-0.12551 z m -15.7963,-2.18669 c -3.2044,-1.60041 -3.7243,-4.82471 -0.9481,-5.88016 3.8375,-1.45907 9.1543,2.67103 6.9138,5.37075 -1.3207,1.5913 -3.4376,1.77209 -5.9657,0.50941 z m 31.9498,0.2659 c -1.4415,-1.73683 -0.2954,-4.46444 2.2485,-5.35124 4.5837,-1.59788 8.5312,2.6935 4.8496,5.27212 -2.0709,1.45055 -5.9243,1.49347 -7.0981,0.0791 z m -47.2774,-9.41183 c -1.3942,-1.29209 -1.8934,-2.3841 -1.7313,-3.78732 0.4153,-3.59577 5.8369,-3.05558 7.433,0.74055 1.9215,4.56993 -1.8713,6.59658 -5.7017,3.04677 z m -10.2072,-12.24161 c -2.1732,-2.17324 -2.3198,-5.10891 -0.3087,-6.18516 1.2259,-0.65615 1.8148,-0.43379 3.6128,1.36412 2.2675,2.26752 2.7196,4.28887 1.2809,5.72749 -1.312,1.31211 -2.6263,1.05227 -4.585,-0.90645 z m -8.621,-12.23387 c -2.0665,-2.06651 -2.2987,-3.48522 -0.777,-4.74815 0.8186,-0.67933 1.4873,-0.65715 3.0709,0.1019 1.6428,0.78735 2.0246,1.44354 2.0246,3.47967 0,3.20342 -1.7964,3.68868 -4.3185,1.16658 z m -9.3947,-8.84105 c -1.5252,-1.52524 -1.1239,-3.46758 0.7727,-3.73999 2.0546,-0.29507 5.0002,2.18479 4.4129,3.71515 -0.5884,1.53344 -3.6623,1.54816 -5.1856,0.0248 z"
         style="fill:#383548;fill-opacity:1" />
    </g>
    <g
       id="g4311"
       transform="translate(-605.71433,948.57143)">
      <rect
         y="-159.06636"
         x="-605.71429"
         height="480"
         width="480"
         id="rect4245-6-5"
         style="opacity:1;fill:#ffffff;fill-opacity:0;stroke:none;stroke-width:4.19999981;stroke-miterlimit:4;stroke-dasharray:none;stroke-opacity:1" />
      <path
         inkscape:connector-curvature="0"
         d="m -334.76034,110.20585 c -24.36341,-39.551373 -44.28551,-72.80404 -44.27136,-73.894806 0.0557,-4.295339 80.38697,-131.884582 83.0356,-131.884582 5.26171,0 133.68853,65.422461 133.68853,68.102853 0,2.226437 -122.71008,203.630605 -126.77815,208.081085 -0.75765,0.82888 -21.31124,-30.85316 -45.67462,-70.40455 z m -26.44585,51.8862 c -32.4946,-16.32828 -59.50309,-30.78742 -60.01884,-32.13146 -0.51575,-1.34403 -0.70281,-33.601976 -0.41568,-71.684361 l 0.52207,-69.240698 61.48001,99.834488 c 33.81402,54.908981 61.77751,100.574701 62.1411,101.479411 1.60341,3.98966 -8.09532,-0.31212 -63.70866,-28.25738 z m 132.78778,65.40226 c -58.218,-29.25386 -59.12432,-29.8023 -56.35653,-34.10341 1.54718,-2.40428 29.95837,-48.5445 63.13602,-102.533869 l 60.32296,-98.1624834 0.51597,129.8941124 c 0.4781,120.3551 0.26822,130.07615 -2.85808,132.37313 -1.85572,1.36346 -3.87282,2.43078 -4.48243,2.37178 -0.60961,-0.059 -27.73467,-13.48664 -60.27791,-29.83926 z M -503.84869,226.205 c -46.98638,-23.65454 -62.64009,-32.43921 -64.49531,-36.19389 -1.87143,-3.78755 -2.45669,-37.10928 -2.47903,-141.142697 -0.0159,-74.90155 0.51246,-137.596306 1.17457,-139.321673 0.66208,-1.725394 3.11633,-3.092649 5.45387,-3.03839 2.33753,0.0543 32.80854,14.556608 67.71333,32.227442 l 63.46326,32.128767 0.50907,140.158371 c 0.4557,125.4624 0.18087,140.48654 -2.62069,143.28814 -1.72138,1.72136 -3.92713,3.12975 -4.90167,3.12975 -0.97454,0 -29.69238,-14.05612 -63.8174,-31.23582 z"
         style="fill:#383548;fill-opacity:1"
         id="path4225" />
    </g>
    <g
       id="g4319"
       transform="translate(-608.57151,905.7143)">
      <rect
         y="363.79077"
         x="-602.85712"
         height="480"
         width="480"
         id="rect4245-6-5-6"
         style="opacity:1;fill:#ffffff;fill-opacity:0;stroke:none;stroke-width:4.19999981;stroke-miterlimit:4;stroke-dasharray:none;stroke-opacity:1" />
      <g
         style="fill:#383548;fill-opacity:1"
         transform="matrix(4.7131131,0,0,4.7131131,-641.63776,329.48759)"
         id="g4206">
        <polygon
           style="fill:#383548;fill-opacity:1"
           class="st0"
           points="84.4,70.6 92.1,70.6 92.1,101.5 22.6,101.5 22.6,70.6 30.3,70.6 30.3,93.8 84.4,93.8 "
           id="polygon4195" />
        <path
           style="fill:#383548;fill-opacity:1"
           inkscape:connector-curvature="0"
           class="st1"
           d="m 38.8,68.4 37.8,7.9 1.6,-7.6 -37.8,-7.9 -1.6,7.6 z m 5,-18 35,16.3 3.2,-7 -35,-16.4 -3.2,7.1 z M 53.5,33.2 83.2,57.9 88.1,52 58.4,27.3 53.5,33.2 Z m 19.2,-18.3 -6.2,4.6 23,31 6.2,-4.6 -23,-31 z M 38,86 l 38.6,0 0,-7.7 -38.6,0 0,7.7 z"
           id="path4197" />
      </g>
    </g>
    <g
       id="g4325"
       transform="translate(-1342.8572,1391.4286)">
      <rect
         y="358.07651"
         x="131.42857"
         height="480"
         width="480"
         id="rect4245-6-5-6-8"
         style="opacity:1;fill:#ffffff;fill-opacity:0;stroke:none;stroke-width:4.19999981;stroke-miterlimit:4;stroke-dasharray:none;stroke-opacity:1" />
      <path
         inkscape:connector-curvature="0"
         id="path4243"
         d="m 176.07144,598.07649 0,-109.59057 4.76481,0 4.7648,0 0,109.59057 0,109.5906 -4.7648,0 -4.76481,0 0,-109.5906 z m 381.18466,0 0,-109.59057 4.76481,0 4.7648,0 0,109.59057 0,109.5906 -4.7648,0 -4.76481,0 0,-109.5906 z m -324.00696,0.93561 0,-71.04236 25.35329,0.96744 c 30.83734,1.17669 40.09968,4.41154 48.36273,16.89052 l 5.37979,8.12465 0.6386,39.36265 c 0.69852,43.05707 -0.49177,51.40386 -8.72594,61.18965 -8.73182,10.37721 -19.15947,13.64996 -46.70795,14.65947 l -24.30052,0.89041 0,-71.04243 z m 48.97124,39.25381 5.34757,-4.59981 0,-35.59297 c 0,-35.10664 -0.0615,-35.64278 -4.49947,-39.23644 -3.18619,-2.58001 -7.49748,-3.64346 -14.7709,-3.64346 l -10.27144,0 0,43.83624 0,43.83625 9.42334,0 c 7.21359,0 10.67731,-1.07867 14.7709,-4.59981 z m 56.80675,28.668 c -10.8937,-4.79865 -10.68397,-3.37144 -10.08305,-68.61941 0.69573,-75.54359 -3.11453,-68.85123 39.20016,-68.85123 l 29.96726,0 0,12.3885 0,12.38851 -22.3946,0.53695 -22.3946,0.53698 0,15.10342 0,15.10334 13.81794,0.56 13.81795,0.55999 0,11.43553 c 0,11.32633 -0.0545,11.44023 -5.71777,11.92689 -3.14478,0.2702 -9.36285,0.96602 -13.81794,1.54617 l -8.10018,1.05496 0,15.13054 0,15.13067 12.86498,0.0171 c 7.07574,0.01 17.40545,0.56189 22.95489,1.22837 l 10.08988,1.21177 -0.56027,11.63665 -0.56028,11.63658 -26.68293,0.4286 c -18.79097,0.30183 -28.37428,-0.31641 -32.40144,-2.09032 z m 118.92632,-1.67637 c -3.56184,-2.36009 -8.3626,-8.14935 -10.66831,-12.86502 -4.50602,-9.21572 -34.871,-121.34918 -33.28895,-122.93125 1.99851,-1.99851 22.59809,-0.83798 25.40832,1.43144 1.6965,1.37 7.22896,18.98573 13.01917,41.4538 5.53797,21.48931 10.69854,40.78675 11.46794,42.88328 1.69666,4.6232 5.15789,-5.97307 17.20759,-52.6798 l 8.18196,-31.71466 10.57349,-0.87684 c 15.52617,-1.28755 17.8436,-0.30564 16.28387,6.89967 -5.1719,23.89201 -32.07033,118.72217 -34.70183,122.34092 -2.72452,3.74673 -13.0264,10.34952 -16.1476,10.34952 -0.47274,0 -3.77378,-1.93098 -7.33565,-4.29106 z"
         style="fill:#383548;fill-opacity:1" />
    </g>
  </g>
  <style
     id="style4193"
     type="text/css">
	.st0{fill:#BCBBBB;}
	.st1{fill:#F48023;}
</style>
</svg>
