<?xml version="1.0" encoding="UTF-8" standalone="no"?>
<!-- Created with Inkscape (http://www.inkscape.org/) -->

<svg
   xmlns:dc="http://purl.org/dc/elements/1.1/"
   xmlns:cc="http://creativecommons.org/ns#"
   xmlns:rdf="http://www.w3.org/1999/02/22-rdf-syntax-ns#"
   xmlns:svg="http://www.w3.org/2000/svg"
   xmlns="http://www.w3.org/2000/svg"
   xmlns:sodipodi="http://sodipodi.sourceforge.net/DTD/sodipodi-0.dtd"
   xmlns:inkscape="http://www.inkscape.org/namespaces/inkscape"
   width="210mm"
   height="297mm"
   viewBox="0 0 744.09448819 1052.3622047"
   id="svg2"
   version="1.1"
   inkscape:version="0.91 r13725"
   sodipodi:docname="favicon.svg">
  <defs
     id="defs4" />
  <sodipodi:namedview
     id="base"
     pagecolor="#ffffff"
     bordercolor="#666666"
     borderopacity="1.0"
     inkscape:pageopacity="0.0"
     inkscape:pageshadow="2"
     inkscape:zoom="0.49497475"
     inkscape:cx="-625.52488"
     inkscape:cy="234.24604"
     inkscape:document-units="px"
     inkscape:current-layer="layer1"
     showgrid="false"
     inkscape:window-width="1366"
     inkscape:window-height="706"
     inkscape:window-x="-8"
     inkscape:window-y="-8"
     inkscape:window-maximized="1" />
  <metadata
     id="metadata7">
    <rdf:RDF>
      <cc:Work
         rdf:about="">
        <dc:format>image/svg+xml</dc:format>
        <dc:type
           rdf:resource="http://purl.org/dc/dcmitype/StillImage" />
        <dc:title />
      </cc:Work>
    </rdf:RDF>
  </metadata>
  <g
     inkscape:label="Layer 1"
     inkscape:groupmode="layer"
     id="layer1">
    <circle
       style="opacity:1;fill:#ffffff;fill-opacity:1;stroke:none;stroke-width:4.19999981;stroke-miterlimit:4;stroke-dasharray:none;stroke-opacity:1"
       id="path4142-11"
       cx="32.391884"
       cy="684.57214"
       r="148.11816" />
    <circle
       style="opacity:1;fill:#383548;fill-opacity:1;stroke:none;stroke-width:4.19999981;stroke-miterlimit:4;stroke-dasharray:none;stroke-opacity:1"
       id="path4142"
       cx="-426.30609"
       cy="521.11926"
       r="148.11816" />
    <text
       xml:space="preserve"
       style="font-style:normal;font-weight:normal;font-size:50.99038696px;line-height:125%;font-family:sans-serif;letter-spacing:0px;word-spacing:0px;fill:#000000;fill-opacity:1;stroke:none;stroke-width:1px;stroke-linecap:butt;stroke-linejoin:miter;stroke-opacity:1"
       x="-589.43549"
       y="600.44318"
       id="text4170"
       sodipodi:linespacing="125%"><tspan
         sodipodi:role="line"
         id="tspan4172"
         x="-589.43549"
         y="600.44318"
         style="font-style:italic;font-variant:normal;font-weight:normal;font-stretch:normal;font-size:229.45674133px;font-family:'Lucida Handwriting';-inkscape-font-specification:'Lucida Handwriting Italic'">KS</tspan></text>
    <path
       style="opacity:1;fill:#383548;fill-opacity:1;stroke:none;stroke-width:4.19999981;stroke-miterlimit:4;stroke-dasharray:none;stroke-opacity:1"
       d="m 32.390904,536.45396 a 148.11816,148.11816 0 0 0 -119.470707,60.83203 c 11.3472,-0.0392 26.0615,-1.15269 44.18164,-3.35351 l -16.24609,81.67578 c 42.79906,-29.13025 68.0082732,-56.65381 75.626954,-82.57227 10.606399,5.45259 15.908203,11.279 15.908203,17.47852 0,3.43587 -7.87846,12.21116 -23.6386718,26.32812 -15.685515,14.11697 -31.6700652,26.77848 -47.9531252,37.98242 13.66881,25.76907 27.03811,46.71984 40.1093702,62.85352 13.0712708,16.05898 23.1927628,24.08984 30.3632858,24.08984 6.975156,0 14.608519,-3.55032 22.898438,-10.625 -0.394345,-1.83814 -0.603516,-3.74701 -0.603516,-5.73437 0,-6.19952 5.041452,-13.07125 15.125,-20.61524 0,12.17496 3.324984,21.73715 9.972656,28.6836 6.722366,6.94644 15.983671,10.41797 27.785159,10.41797 10.45701,0 19.53319,-3.13595 27.22656,-9.41016 7.69337,-6.27421 11.53906,-13.63196 11.53906,-22.07226 0,-9.03785 -8.47829,-21.47369 -25.43359,-37.3086 L 107.45731,683.67662 C 91.697098,669.0368 83.818638,655.55369 83.818638,643.22935 c 0,-14.34105 5.600745,-26.14237 16.804692,-35.4043 11.20394,-9.26192 25.47006,-13.89257 42.79882,-13.89257 2.1636,0 4.22252,0.0848 6.19141,0.24218 A 148.11816,148.11816 0 0 0 32.390904,536.45396 Z m 104.085936,69.13086 c -9.11254,0 -16.80587,2.83896 -23.08008,8.51563 -6.19951,5.60197 -9.30078,12.54697 -9.30078,20.83789 0,5.52727 1.00868,9.74713 3.02539,12.66015 2.09141,2.91303 8.47907,9.2621 19.16016,19.04688 l 10.08203,9.30078 c 18.37447,17.10468 27.5625,32.45276 27.5625,46.04687 0,15.83491 -6.27385,28.98049 -18.82226,39.4375 -12.54842,10.38232 -28.34588,15.57422 -47.392583,15.57422 -12.772495,0 -23.341422,-2.98745 -31.707032,-8.96289 -4.73788,-3.41469 -8.116086,-7.34406 -10.146484,-11.7832 -1.470907,4.27096 -5.148005,8.64597 -11.029297,13.12695 -7.84276,6.05013 -15.424232,9.07617 -22.744141,9.07617 -19.1213958,0 -46.683546,-31.89386 -82.685546,-95.68164 l -11.76367,59.04492 c -1.41917,7.02114 -2.12891,11.61516 -2.12891,13.78125 0,2.09141 0.48602,4.33053 1.45703,6.72071 -6.14553,3.04293 -11.78308,4.85068 -16.92773,5.46289 A 148.11816,148.11816 0 0 0 32.390904,832.69029 148.11816,148.11816 0 0 0 180.51005,684.5731 148.11816,148.11816 0 0 0 165.58036,620.03599 c -6.57694,-9.63356 -16.27623,-14.45117 -29.10352,-14.45117 z m -233.269533,6.66797 a 148.11816,148.11816 0 0 0 -18.933587,72.32031 148.11816,148.11816 0 0 0 17.501947,69.60742 c 0.28555,-1.52187 0.61094,-3.19726 0.98633,-5.07422 l 27.11328,-136.57617 c -6.57298,0.89632 -12.69833,1.34571 -18.375,1.34571 -3.09678,0 -5.85771,-0.54482 -8.29297,-1.62305 z"
       id="path4142-7"
       inkscape:connector-curvature="0"
       inkscape:export-xdpi="77.775742"
       inkscape:export-ydpi="77.775742" />
    <circle
       style="opacity:1;fill:#383548;fill-opacity:1;stroke:none;stroke-width:4.19999981;stroke-miterlimit:4;stroke-dasharray:none;stroke-opacity:1"
       id="path4142-1"
       cx="-436.38593"
       cy="850.33167"
       r="148.11816" />
    <text
       xml:space="preserve"
       style="font-style:normal;font-weight:normal;font-size:93.06941986px;line-height:125%;font-family:sans-serif;letter-spacing:0px;word-spacing:0px;fill:#000000;fill-opacity:1;stroke:none;stroke-width:1px;stroke-linecap:butt;stroke-linejoin:miter;stroke-opacity:1"
       x="-677.88965"
       y="1002.9896"
       id="text4170-1"
       sodipodi:linespacing="125%"><tspan
         sodipodi:role="line"
         id="tspan4172-3"
         x="-677.88965"
         y="1002.9896"
         style="font-style:normal;font-variant:normal;font-weight:normal;font-stretch:normal;font-size:418.81234741px;font-family:'Andale Mono IPA';-inkscape-font-specification:'Andale Mono IPA'">K</tspan></text>
    <text
       xml:space="preserve"
       style="font-style:normal;font-weight:normal;font-size:40px;line-height:125%;font-family:sans-serif;letter-spacing:0px;word-spacing:0px;fill:#000000;fill-opacity:1;stroke:none;stroke-width:1px;stroke-linecap:butt;stroke-linejoin:miter;stroke-opacity:1"
       x="-497.45697"
       y="1002.7851"
       id="text4283"
       sodipodi:linespacing="125%"><tspan
         sodipodi:role="line"
         id="tspan4285"
         x="-497.45697"
         y="1002.7851"
         style="font-style:normal;font-variant:normal;font-weight:normal;font-stretch:normal;font-size:418.81234741px;font-family:'Andale Mono IPA';-inkscape-font-specification:'Andale Mono IPA'">S</tspan></text>
    <g
       id="g4162"
       inkscape:export-xdpi="70.833656"
       inkscape:export-ydpi="70.833656">
      <rect
         y="533.1438"
         x="-1288.9546"
         height="325.2691"
         width="325.2691"
         id="rect4160"
         style="opacity:1;fill:#38354f;fill-opacity:0.94117647;stroke:none;stroke-width:4.19999981;stroke-miterlimit:4;stroke-dasharray:none;stroke-opacity:1" />
      <text
         sodipodi:linespacing="125%"
         id="text4170-15"
         y="775.10223"
         x="-1289.4495"
         style="font-style:normal;font-weight:normal;font-size:50.99038696px;line-height:125%;font-family:sans-serif;letter-spacing:0px;word-spacing:0px;fill:#ffffff;fill-opacity:1;stroke:none;stroke-width:1px;stroke-linecap:butt;stroke-linejoin:miter;stroke-opacity:1"
         xml:space="preserve"><tspan
           style="font-style:italic;font-variant:normal;font-weight:normal;font-stretch:normal;font-size:229.45674133px;font-family:'Lucida Handwriting';-inkscape-font-specification:'Lucida Handwriting Italic';fill:#ffffff;fill-opacity:1"
           y="775.10223"
           x="-1289.4495"
           id="tspan4172-32"
           sodipodi:role="line">KS</tspan></text>
    </g>
    <g
       id="g4200"
       transform="translate(24.243661,-10.101525)"
       inkscape:export-xdpi="77.775742"
       inkscape:export-ydpi="77.775742">
      <circle
         r="148.11816"
         cy="1145.2963"
         cx="-46.467022"
         id="path4142-11-7"
         style="opacity:1;fill:#ffffff;fill-opacity:1;stroke:none;stroke-width:4.19999981;stroke-miterlimit:4;stroke-dasharray:none;stroke-opacity:1" />
      <path
         inkscape:export-ydpi="77.775742"
         inkscape:export-xdpi="77.775742"
         inkscape:connector-curvature="0"
         id="path4142-7-0"
         d="M -46.468002,997.17807 A 148.11816,148.11816 0 0 0 -165.9387,1058.0101 c 11.3472,-0.039 26.0615,-1.1527 44.18164,-3.3535 l -16.24609,81.6757 c 42.799058,-29.1302 68.008268,-56.6538 75.626948,-82.5722 10.6064,5.4526 15.9082,11.279 15.9082,17.4785 0,3.4359 -7.87846,12.2111 -23.63867,26.3281 -15.68551,14.117 -31.670058,26.7785 -47.953118,37.9824 13.66881,25.7691 27.038108,46.7199 40.109368,62.8535 13.07127,16.059 23.19276,24.0899 30.36328,24.0899 6.97516,0 14.60852,-3.5503 22.89844,-10.625 -0.39434,-1.8382 -0.60351,-3.747 -0.60351,-5.7344 0,-6.1995 5.04145,-13.0712 15.125,-20.6152 0,12.1749 3.32498,21.7371 9.97264997,28.6836 6.72237003,6.9464 15.98367003,10.4179 27.78516003,10.4179 10.45701,0 19.53319,-3.1359 27.22656,-9.4101 7.69337,-6.2742 11.53906,-13.632 11.53906,-22.0723 0,-9.0378 -8.47829,-21.4737 -25.43359,-37.3086 l -12.32422,-11.4277 c -15.76021,-14.6398 -23.63867,-28.1229 -23.63867,-40.4473 0,-14.341 5.60074,-26.1423 16.80469,-35.4043 11.20394,-9.2619 25.47006,-13.8925 42.79882,-13.8925 2.1636,0 4.22252,0.085 6.19141,0.2421 a 148.11816,148.11816 0 0 0 -117.22266,-57.72063 z m 104.08594,69.13083 c -9.11254,0 -16.80587,2.839 -23.08008,8.5156 -6.19951,5.602 -9.30078,12.547 -9.30078,20.8379 0,5.5273 1.00868,9.7471 3.02539,12.6602 2.09141,2.913 8.47907,9.2621 19.16016,19.0468 l 10.08203,9.3008 c 18.37447,17.1047 27.5625,32.4528 27.5625,46.0469 0,15.8349 -6.27385,28.9805 -18.82226,39.4375 -12.54842,10.3823 -28.34588,15.5742 -47.39258,15.5742 -12.7725,0 -23.34142,-2.9874 -31.70703,-8.9629 -4.73788,-3.4147 -8.11609,-7.344 -10.14649,-11.7832 -1.47091,4.271 -5.148,8.646 -11.0293,13.127 -7.84276,6.0501 -15.42423,9.0761 -22.74414,9.0761 -19.12139,0 -46.683538,-31.8938 -82.685538,-95.6816 l -11.76367,59.0449 c -1.41917,7.0212 -2.12891,11.6152 -2.12891,13.7813 0,2.0914 0.48602,4.3305 1.45703,6.7207 -6.14553,3.0429 -11.78308,4.8507 -16.92773,5.4629 a 148.11816,148.11816 0 0 0 122.355458,64.9004 148.11816,148.11816 0 0 0 148.119152,-148.1172 148.11816,148.11816 0 0 0 -14.929692,-64.5371 c -6.57694,-9.6336 -16.27623,-14.4512 -29.10352,-14.4512 z m -233.269528,6.668 a 148.11816,148.11816 0 0 0 -18.93359,72.3203 148.11816,148.11816 0 0 0 17.50195,69.6074 c 0.28555,-1.5219 0.61094,-3.1973 0.98633,-5.0742 l 27.11328,-136.5762 c -6.57298,0.8963 -12.69833,1.3457 -18.375,1.3457 -3.09678,0 -5.85771,-0.5448 -8.29297,-1.623 z"
         style="opacity:1;fill:#383548;fill-opacity:1;stroke:none;stroke-width:4.19999981;stroke-miterlimit:4;stroke-dasharray:none;stroke-opacity:1" />
    </g>
  </g>
</svg>
